<svg xmlns="http://www.w3.org/2000/svg" height="512pt" version="1.1" viewBox="-81 0 512 512.00264" width="512pt">
<g id="surface1">
<path d="M 27.757812 28.753906 C 42.273438 34.621094 58.800781 46.707031 65.054688 61.539062 C 72.742188 79.777344 74.789062 100.046875 75.027344 119.660156 C 75.210938 134.484375 74.339844 149.289062 74.027344 164.101562 C 73.734375 177.832031 74.253906 191.378906 74.800781 205.195312 C 75.980469 234.957031 76.277344 264.753906 75.691406 294.53125 C 75.179688 320.4375 74.003906 346.332031 72.15625 372.179688 C 71.835938 376.691406 72.457031 381.03125 72.402344 385.464844 C 72.339844 390.867188 69.886719 396.761719 76.332031 399.597656 C 79.734375 401.089844 84.257812 400.246094 86.179688 396.859375 C 88.863281 392.140625 87.027344 382.804688 87.054688 377.503906 C 87.089844 370.03125 87.125 362.554688 87.160156 355.082031 C 87.304688 325.183594 87.445312 295.285156 87.589844 265.386719 C 87.667969 249.542969 87.742188 233.695312 87.816406 217.851562 C 87.976562 184.15625 89.09375 150.519531 89.929688 116.8125 C 90.78125 82.222656 84.710938 44.542969 56.527344 21.027344 C 47.015625 13.089844 29.148438 1.59375 15.957031 4.339844 C 9.839844 5.613281 7.679688 10.929688 9.914062 16.613281 C 12.765625 23.867188 21.21875 26.109375 27.757812 28.753906 Z M 27.757812 28.753906 " style=" stroke:none;fill-rule:nonzero;fill:rgb(84.705882%,87.058824%,92.54902%);fill-opacity:1;" />
<path d="M 86.339844 261.125 C 88.683594 263.726562 87.75 267.761719 86.96875 271.175781 C 86.191406 274.589844 86.148438 279.011719 89.25 280.644531 C 90.488281 281.296875 91.957031 281.308594 93.355469 281.300781 C 145.007812 281.082031 196.65625 280.863281 248.304688 280.644531 C 258.289062 280.601562 271.71875 274.5 262.503906 262.761719 C 260.011719 259.585938 256.441406 259.089844 252.628906 258.800781 C 245.460938 258.25 238.203125 258.277344 231.019531 258.105469 C 200.253906 257.363281 169.464844 257.503906 138.707031 258.527344 C 121.238281 259.109375 103.777344 259.972656 86.339844 261.125 Z M 86.339844 261.125 " style=" stroke:none;fill-rule:nonzero;fill:rgb(84.705882%,87.058824%,92.54902%);fill-opacity:1;" />
<path d="M 255.753906 408.53125 C 258.550781 408.027344 261.402344 407.496094 264.214844 407.902344 C 267.027344 408.308594 269.847656 409.835938 271.023438 412.425781 C 272.28125 415.199219 271.351562 418.589844 269.425781 420.949219 C 267.5 423.304688 264.742188 424.816406 261.976562 426.09375 C 251.878906 430.746094 240.859375 433 229.886719 434.75 C 199.011719 439.671875 167.550781 440.890625 136.390625 438.363281 C 130.007812 437.847656 123.304688 437.054688 118.113281 433.300781 C 114.394531 430.613281 103.003906 415.019531 109.3125 411.175781 C 112.304688 409.351562 122.921875 412.617188 126.46875 413.003906 C 132.386719 413.652344 138.316406 414.179688 144.253906 414.589844 C 168.011719 416.234375 191.894531 416.003906 215.613281 413.90625 C 229.066406 412.714844 242.464844 410.925781 255.753906 408.53125 Z M 255.753906 408.53125 " style=" stroke:none;fill-rule:nonzero;fill:rgb(84.705882%,87.058824%,92.54902%);fill-opacity:1;" />
<path d="M 264.871094 475.199219 C 270.808594 474.269531 277.003906 473.148438 282.714844 475.019531 C 288.425781 476.890625 293.28125 482.960938 291.496094 488.699219 C 290.460938 492.015625 287.46875 494.433594 284.214844 495.65625 C 280.960938 496.875 277.429688 497.082031 273.957031 497.277344 C 253.722656 498.402344 233.488281 499.53125 213.257812 500.660156 C 197.4375 501.542969 181.5 502.421875 165.804688 500.253906 C 150.109375 498.089844 134.488281 492.65625 122.53125 482.257812 C 119.90625 479.980469 117.386719 477.324219 116.445312 473.976562 C 115.351562 470.085938 116.3125 462.136719 119.148438 458.964844 C 122.34375 455.394531 126.242188 458.316406 129.957031 459.804688 C 140.269531 463.9375 150.859375 467.386719 161.625 470.140625 C 183.15625 475.648438 205.398438 478.375 227.625 478.214844 C 240.089844 478.125 252.550781 477.125 264.871094 475.199219 Z M 264.871094 475.199219 " style=" stroke:none;fill-rule:nonzero;fill:rgb(84.705882%,87.058824%,92.54902%);fill-opacity:1;" />
<path d="M 151.011719 84.738281 C 146.597656 93.058594 139.363281 99.460938 132.28125 105.667969 C 125.195312 111.875 117.953125 118.261719 113.515625 126.566406 C 108.136719 136.628906 107.414062 148.445312 106.902344 159.839844 C 105.640625 187.882812 104.960938 215.949219 104.859375 244.019531 C 104.84375 249.457031 105.320312 255.828125 109.882812 258.789062 C 112.542969 260.519531 115.921875 260.558594 119.09375 260.546875 C 163.671875 260.34375 208.25 260.144531 252.828125 259.945312 C 252.289062 220.757812 251.75 181.570312 251.210938 142.386719 C 251.0625 131.691406 250.839844 120.632812 246.386719 110.90625 C 241.933594 101.179688 232.046875 93.089844 221.410156 94.214844 C 217.375 94.644531 213.574219 96.328125 209.589844 97.09375 C 199.09375 99.113281 187.59375 94.015625 182.046875 84.878906 C 176.496094 75.742188 177.273438 63.183594 183.90625 54.800781 C 182.667969 56.476562 168.53125 54.378906 166.019531 54.566406 C 162.566406 54.828125 159.449219 55.570312 157.285156 58.46875 C 155.214844 61.238281 155.003906 65.046875 154.785156 68.351562 C 154.402344 74.210938 153.820312 79.433594 151.011719 84.738281 Z M 151.011719 84.738281 " style=" stroke:none;fill-rule:nonzero;fill:rgb(35.686275%,81.568627%,98.823529%);fill-opacity:1;" />
<path d="M 108.851562 410.09375 C 152.527344 420.914062 198.847656 420.898438 242.519531 410.039062 C 245.574219 409.28125 248.847656 408.324219 250.761719 405.820312 C 252.664062 403.335938 252.746094 399.953125 252.746094 396.824219 C 252.75 357.855469 252.753906 318.890625 252.757812 279.921875 C 213.097656 280.375 173.4375 280.828125 133.777344 281.277344 C 126.789062 281.359375 118.210938 279.019531 111.410156 280.878906 C 104.773438 282.691406 106.246094 289.960938 106.050781 295.613281 C 105.878906 300.703125 107.226562 305.441406 107.679688 310.535156 C 108.65625 321.429688 107.730469 332.371094 107.886719 343.28125 C 108.207031 365.554688 108.527344 387.824219 108.851562 410.09375 Z M 108.851562 410.09375 " style=" stroke:none;fill-rule:nonzero;fill:rgb(35.686275%,81.568627%,98.823529%);fill-opacity:1;" />
<path d="M 255.882812 430.574219 C 254.605469 437.859375 253.308594 445.203125 250.597656 452.082031 C 247.890625 458.964844 243.628906 465.441406 237.484375 469.5625 C 229.457031 474.953125 219.25 475.746094 209.578125 475.683594 C 177.890625 475.488281 146.269531 467.859375 117.976562 453.578125 C 119.539062 454.367188 120.027344 441.328125 120.003906 440.519531 C 119.8125 434.390625 122.058594 435.738281 127.664062 436.582031 C 137.914062 438.125 148.238281 439.167969 158.589844 439.730469 C 179.453125 440.863281 200.421875 440.023438 221.125 437.210938 C 232.816406 435.625 244.425781 433.410156 255.882812 430.574219 Z M 255.882812 430.574219 " style=" stroke:none;fill-rule:nonzero;fill:rgb(35.686275%,81.568627%,98.823529%);fill-opacity:1;" />
<path d="M 274.164062 89.574219 C 298.609375 89.457031 323.054688 89.339844 347.5 89.222656 C 347.179688 79.941406 346.277344 69.445312 339.039062 63.625 C 333.96875 59.550781 327.019531 58.894531 320.515625 58.722656 C 313.914062 58.546875 307.300781 58.695312 300.714844 59.167969 C 295.53125 59.539062 287.496094 59.074219 282.792969 61.480469 C 274.300781 65.828125 272.5625 81.414062 274.164062 89.574219 Z M 274.164062 89.574219 " style=" stroke:none;fill-rule:nonzero;fill:rgb(35.686275%,81.568627%,98.823529%);fill-opacity:1;" />
<path d="M 270.058594 147.234375 C 270.113281 153.832031 270.519531 160.902344 274.5 166.164062 C 280.121094 173.597656 290.683594 174.800781 300.003906 174.816406 C 309.246094 174.835938 318.484375 174.296875 327.664062 173.210938 C 332.59375 172.628906 337.878906 171.707031 341.367188 168.175781 C 345.460938 164.039062 345.863281 157.617188 346.015625 151.800781 C 346.496094 133.570312 346.90625 115.335938 347.257812 97.101562 C 347.296875 95.023438 347.269531 92.75 345.957031 91.144531 C 344.296875 89.109375 341.300781 88.953125 338.675781 88.960938 C 321.800781 89.007812 304.925781 89.058594 288.054688 89.109375 C 280.304688 89.128906 274.984375 87.027344 273.65625 95.625 C 272.414062 103.667969 271.566406 111.785156 270.964844 119.902344 C 270.289062 129.003906 270.058594 138.109375 270.058594 147.234375 Z M 270.058594 147.234375 " style=" stroke:none;fill-rule:nonzero;fill:rgb(69.803922%,91.764706%,97.647059%);fill-opacity:1;" />
<path d="M 140.453125 40.984375 C 140.480469 44.730469 141.808594 48.648438 144.769531 50.9375 C 147.664062 53.175781 151.546875 53.511719 155.195312 53.757812 C 160.042969 54.089844 164.890625 54.421875 169.742188 54.753906 C 173.835938 55.035156 178.046875 55.300781 181.953125 54.042969 C 186.824219 52.46875 190.632812 48.726562 194.945312 45.96875 C 199.261719 43.210938 205.042969 41.476562 209.378906 44.199219 C 212.890625 40.042969 212.519531 33.488281 209.414062 29.019531 C 206.3125 24.546875 201.023438 21.984375 195.671875 21.015625 C 190.316406 20.046875 184.816406 20.496094 179.394531 20.945312 C 172.199219 21.546875 165.003906 22.144531 157.808594 22.742188 C 145.894531 23.734375 140.367188 28.777344 140.453125 40.984375 Z M 140.453125 40.984375 " style=" stroke:none;fill-rule:nonzero;fill:rgb(84.705882%,87.058824%,92.54902%);fill-opacity:1;" />
<path d="M 155.460938 5.773438 C 165.417969 3.777344 175.679688 3.3125 185.773438 4.394531 C 187.726562 4.601562 189.777344 4.914062 191.308594 6.148438 C 193.625 8.015625 194.003906 11.34375 194.207031 14.3125 C 194.378906 16.816406 194.367188 19.75 192.390625 21.292969 C 191.179688 22.234375 189.550781 22.371094 188.019531 22.46875 C 179.628906 23.007812 170.167969 24.824219 161.808594 24.019531 C 157.496094 23.605469 157.703125 22.535156 156.800781 18.074219 C 156.578125 16.984375 154.722656 5.917969 155.460938 5.773438 Z M 155.460938 5.773438 " style=" stroke:none;fill-rule:nonzero;fill:rgb(57.647059%,60.784314%,66.666667%);fill-opacity:1;" />
<path d="M 221.261719 47.578125 C 231.023438 53.703125 236.167969 66.371094 233.441406 77.566406 C 230.714844 88.765625 220.320312 97.648438 208.835938 98.597656 C 197.347656 99.546875 185.636719 92.492188 181.105469 81.898438 C 170.726562 57.609375 198.839844 33.507812 221.261719 47.578125 Z M 221.261719 47.578125 " style=" stroke:none;fill-rule:nonzero;fill:rgb(57.647059%,60.784314%,66.666667%);fill-opacity:1;" />
<path d="M 280.894531 21.890625 C 279.761719 28.855469 282.359375 36.195312 287.203125 41.324219 C 292.050781 46.453125 298.953125 49.421875 305.984375 50.042969 C 312.570312 50.625 319.546875 49.09375 324.589844 44.8125 C 330.742188 39.589844 333.203125 30.601562 331.074219 22.816406 C 328.949219 15.03125 322.550781 8.6875 314.90625 6.101562 C 301.722656 1.636719 283.417969 6.394531 280.894531 21.890625 Z M 280.894531 21.890625 " style=" stroke:none;fill-rule:nonzero;fill:rgb(100%,100%,100%);fill-opacity:1;" />
<path d="M 284.316406 33.632812 C 285.449219 40.589844 290.59375 46.746094 297.238281 49.105469 C 272.125 50.34375 247.011719 51.585938 221.898438 52.828125 C 222.355469 52.804688 215.882812 44.695312 214.773438 43.976562 C 212.105469 42.242188 208.773438 42.125 206.246094 40.558594 C 210.484375 34.0625 230.160156 36.050781 236.460938 35.769531 C 252.414062 35.054688 268.363281 34.34375 284.316406 33.632812 Z M 284.316406 33.632812 " style=" stroke:none;fill-rule:nonzero;fill:rgb(57.647059%,60.784314%,66.666667%);fill-opacity:1;" />
<path d="M 321.289062 59.339844 C 319.5625 59.335938 319.648438 48.359375 319.640625 47.316406 C 319.644531 48.050781 304.363281 48.773438 303.234375 48.851562 C 295.914062 49.367188 297.015625 57.144531 302.742188 59.164062 C 308.5625 61.21875 315.335938 59.324219 321.289062 59.339844 Z M 321.289062 59.339844 " style=" stroke:none;fill-rule:nonzero;fill:rgb(57.647059%,60.784314%,66.666667%);fill-opacity:1;" />
<path d="M 189.777344 66.507812 C 188.890625 70.667969 189.75 75.167969 192.097656 78.710938 C 194.425781 82.222656 198.199219 84.753906 202.34375 85.535156 C 206.484375 86.316406 210.9375 85.320312 214.328125 82.820312 C 218.46875 79.769531 220.867188 74.5 220.453125 69.375 C 220.039062 64.25 216.824219 59.4375 212.25 57.089844 C 207.527344 54.667969 202.714844 55.660156 197.769531 56.59375 C 193.375 57.425781 190.636719 62.46875 189.777344 66.507812 Z M 189.777344 66.507812 " style=" stroke:none;fill-rule:nonzero;fill:rgb(100%,100%,100%);fill-opacity:1;" />
<path d="M 10.046875 427.925781 C 3.753906 442.976562 4.246094 460.710938 11.332031 475.410156 C 18.417969 490.105469 31.972656 501.527344 47.644531 506.058594 C 62.457031 510.339844 78.949219 508.445312 92.402344 500.921875 C 105.855469 493.398438 116.101562 480.332031 120.207031 465.476562 C 123.570312 453.296875 122.808594 439.902344 117.464844 428.453125 C 111.390625 415.425781 99.664062 405.453125 86.3125 400.128906 C 73.621094 395.070312 59.878906 394.175781 46.410156 395.679688 C 36.3125 396.804688 26.417969 404.839844 19.90625 412.234375 C 15.808594 416.890625 12.441406 422.199219 10.046875 427.925781 Z M 10.046875 427.925781 " style=" stroke:none;fill-rule:nonzero;fill:rgb(35.686275%,36.470588%,42.745098%);fill-opacity:1;" />
<path d="M 32.667969 441.003906 C 29.03125 453.785156 33.761719 468.675781 44.453125 476.570312 C 55.144531 484.457031 71.167969 484.433594 81.496094 476.078125 C 87.183594 471.476562 91.019531 464.707031 92.285156 457.503906 C 94.210938 446.535156 89.964844 434.6875 81.511719 427.4375 C 69.429688 417.082031 49.410156 416.65625 38.875 429.261719 C 36.015625 432.679688 33.890625 436.71875 32.667969 441.003906 Z M 32.667969 441.003906 " style=" stroke:none;fill-rule:nonzero;fill:rgb(84.705882%,87.058824%,92.54902%);fill-opacity:1;" />
<path d="M 44.203125 447.929688 C 42.808594 454.816406 46.195312 462.421875 52.269531 465.957031 C 58.34375 469.488281 66.65625 468.664062 71.886719 463.96875 C 77.117188 459.277344 78.828125 451.066406 75.871094 444.691406 C 72.75 437.964844 65.699219 435.199219 58.707031 434.761719 C 51.765625 434.332031 45.480469 441.601562 44.203125 447.929688 Z M 44.203125 447.929688 " style=" stroke:none;fill-rule:nonzero;fill:rgb(100%,100%,100%);fill-opacity:1;" />
<path d="M 44.875 420.761719 C 32.777344 427.15625 25.617188 440.671875 27.0625 454.394531 C 28.640625 469.378906 41.027344 482.601562 55.875 485.148438 C 57.671875 485.457031 59.484375 485.609375 61.296875 485.609375 C 74.472656 485.609375 87.59375 477.722656 93.296875 465.769531 C 98.214844 455.457031 97.644531 443.082031 91.804688 433.480469 C 82.605469 418.359375 60.679688 412.414062 44.875 420.761719 Z M 86.015625 462.300781 C 81.03125 472.757812 68.660156 479.164062 57.238281 477.203125 C 45.820312 475.242188 36.292969 465.074219 35.082031 453.550781 C 33.996094 443.234375 39.570312 432.683594 48.640625 427.894531 C 52.320312 425.949219 56.492188 425.039062 60.714844 425.039062 C 70.273438 425.039062 80.078125 429.714844 84.914062 437.667969 C 89.289062 444.863281 89.722656 454.53125 86.015625 462.300781 Z M 86.015625 462.300781 " style=" stroke:none;fill-rule:nonzero;fill:rgb(0%,0%,0%);fill-opacity:1;" />
<path d="M 348.894531 75.640625 C 348.386719 70.332031 347.558594 64.804688 343.601562 60.675781 C 338.5625 55.414062 331.09375 55.140625 324.496094 55.300781 C 324.453125 55.300781 324.40625 55.300781 324.363281 55.300781 L 324.613281 47.875 C 324.617188 47.703125 324.59375 47.542969 324.578125 47.375 C 326.132812 46.289062 327.5625 45.050781 328.835938 43.660156 C 336.125 35.679688 337.683594 23.273438 332.550781 14.15625 C 328.367188 6.730469 318.980469 1.777344 308.054688 1.230469 C 297.496094 0.699219 288.375 4.398438 283.644531 11.121094 C 280.261719 15.925781 278.804688 22.039062 279.398438 28.019531 L 213.335938 30.351562 C 212.140625 25.886719 209.734375 20.628906 202 18.789062 C 200.324219 18.386719 198.585938 18.191406 196.832031 18.109375 C 197.117188 16.332031 197.289062 14.460938 197.140625 12.523438 C 196.8125 8.257812 194.902344 4.578125 191.894531 2.433594 C 188.128906 -0.257812 183.46875 -0.0664062 180.378906 0.0625 L 167.550781 0.59375 C 164.035156 0.738281 156.71875 1.042969 153.015625 6.515625 C 151.089844 9.363281 150.546875 13.203125 151.527344 17.0625 C 151.867188 18.394531 152.355469 19.636719 152.90625 20.808594 C 147.972656 21.125 142.558594 21.941406 139.027344 26.261719 C 135.199219 30.949219 135.929688 37.289062 136.363281 41.078125 C 136.832031 45.179688 137.710938 52.816406 143.707031 56.546875 C 145.050781 57.382812 146.46875 57.890625 147.878906 58.210938 C 149.28125 65.625 148.914062 73.386719 146.757812 80.761719 C 145.753906 84.203125 144.671875 87.46875 142.515625 89.609375 C 139.113281 92.988281 136.019531 96.019531 132.628906 98.914062 L 131.121094 100.199219 C 124.695312 105.65625 118.054688 111.300781 113.402344 118.78125 C 105.171875 132.015625 104.859375 148.480469 104.609375 161.710938 L 102.839844 255.710938 L 91.761719 255.683594 L 94.277344 142.570312 C 94.886719 115.253906 95.578125 84.292969 85.191406 56.449219 C 79.875 42.195312 71.039062 28.988281 60.308594 19.253906 C 48.367188 8.421875 34.503906 2.125 20.226562 1.039062 C 17.945312 0.859375 11.019531 0.335938 6.984375 5.25 C 3.84375 9.074219 3.828125 15.03125 6.941406 19.738281 C 9.382812 23.425781 13.078125 25.734375 16.042969 27.585938 C 34.921875 39.382812 54.441406 51.578125 63.523438 70.941406 C 70.511719 85.828125 70.371094 103.628906 70.25 119.332031 L 68.148438 391.144531 C 55.25 389.554688 42.398438 391.648438 31.816406 397.242188 C 10.425781 408.539062 -2.226562 432.445312 0.328125 456.71875 C 3.121094 483.257812 25.058594 506.675781 51.355469 511.191406 C 54.539062 511.738281 57.75 512.003906 60.960938 512.003906 C 82.75 512.003906 104.445312 499.832031 115.449219 480.992188 C 129.753906 495.191406 148.65625 500.988281 162.355469 503.339844 C 171.71875 504.945312 181.152344 505.464844 190.542969 505.464844 C 199.378906 505.464844 208.175781 505.003906 216.828125 504.550781 L 277.253906 501.375 C 281.730469 501.140625 290.0625 500.703125 294.375 494.425781 C 296.511719 491.316406 297.066406 487.429688 295.941406 483.488281 C 294.539062 478.570312 290.753906 474.242188 286.066406 472.1875 C 279.148438 469.15625 271.574219 470.121094 264.894531 470.972656 L 264.164062 471.066406 C 256.617188 472.023438 249.046875 472.660156 241.472656 472.992188 C 253.296875 462.898438 260.335938 447.070312 259.429688 431.554688 C 262.964844 430.472656 266.421875 428.992188 269.257812 426.367188 C 273.640625 422.3125 275.90625 414.824219 272.113281 409.320312 C 268.3125 403.804688 261.363281 403.664062 256.601562 404.214844 L 256.492188 284.15625 C 263.457031 282.921875 267.769531 279.757812 269.3125 274.679688 C 271.371094 267.917969 266.746094 261.367188 261.351562 258.640625 C 259.566406 257.734375 257.695312 257.152344 255.824219 256.773438 C 255.960938 256.40625 256.058594 256.019531 256.082031 255.609375 C 258.195312 216.761719 258.328125 177.359375 256.476562 138.496094 C 255.84375 125.1875 254.5 111.335938 245.855469 101.066406 C 241.414062 95.785156 236.726562 92.851562 231.40625 89.785156 C 235.554688 83.800781 237.554688 76.445312 236.847656 69.300781 C 236.398438 64.84375 235.074219 60.632812 233.070312 56.863281 L 291.679688 55.613281 C 281.828125 57.292969 273.242188 61.773438 270.777344 72.785156 C 268.890625 81.222656 268.816406 90.246094 268.746094 98.972656 C 268.71875 102.726562 268.6875 106.273438 268.523438 109.746094 C 268.316406 114.058594 268.035156 118.480469 267.765625 122.753906 C 267.214844 131.402344 266.648438 140.34375 266.644531 149.160156 C 266.210938 158.378906 266.832031 168.527344 274.585938 174.046875 C 278.851562 177.082031 283.964844 177.59375 288.367188 177.59375 C 289.566406 177.59375 290.714844 177.554688 291.777344 177.519531 L 332.257812 176.179688 C 335.53125 176.070312 340.476562 175.90625 344.257812 172.871094 C 349.21875 168.882812 349.695312 162.070312 349.953125 158.410156 C 351.878906 130.917969 351.523438 103.074219 348.894531 75.640625 Z M 277.65625 80.371094 L 341.152344 79.753906 C 341.300781 81.386719 341.441406 83.019531 341.570312 84.652344 L 277.183594 85.574219 C 277.296875 83.820312 277.445312 82.078125 277.65625 80.371094 Z M 316.304688 55.105469 C 315.835938 55.082031 315.359375 55.058594 314.882812 55.035156 C 311.371094 54.867188 307.464844 54.679688 303.460938 54.707031 L 303.460938 52.285156 C 304.867188 52.492188 306.285156 52.605469 307.703125 52.605469 C 310.667969 52.605469 313.621094 52.160156 316.429688 51.308594 Z M 290.234375 15.761719 C 293.109375 11.679688 299.101562 9.246094 306.105469 9.246094 C 306.613281 9.246094 307.128906 9.257812 307.648438 9.285156 C 315.710938 9.6875 322.730469 13.15625 325.523438 18.113281 C 328.941406 24.183594 327.804688 32.828125 322.878906 38.21875 C 318.007812 43.554688 309.777344 45.820312 302.402344 43.863281 C 296.40625 42.269531 291.203125 37.957031 288.828125 32.609375 C 286.375 27.078125 286.925781 20.464844 290.234375 15.761719 Z M 228.820312 70.105469 C 229.464844 76.574219 227.058594 83.300781 222.382812 88.105469 C 222.378906 88.109375 222.375 88.109375 222.375 88.113281 C 221.597656 88.914062 220.738281 89.671875 219.835938 90.347656 C 213.667969 94.941406 204.992188 96.125 197.738281 93.359375 C 189.539062 90.234375 183.34375 81.941406 182.667969 73.191406 C 182.234375 67.527344 184.089844 61.570312 187.761719 56.84375 C 189.65625 54.398438 191.914062 52.417969 194.480469 50.957031 C 195.015625 50.652344 195.5625 50.375 196.109375 50.113281 C 196.273438 50.035156 196.4375 49.964844 196.597656 49.890625 C 197.011719 49.707031 197.425781 49.535156 197.839844 49.375 C 198 49.3125 198.160156 49.25 198.324219 49.191406 C 198.878906 48.992188 199.4375 48.8125 200 48.660156 C 200.066406 48.640625 200.136719 48.628906 200.207031 48.609375 C 200.707031 48.480469 201.207031 48.367188 201.710938 48.273438 C 201.890625 48.238281 202.070312 48.210938 202.25 48.179688 C 202.671875 48.113281 203.097656 48.058594 203.519531 48.015625 C 203.6875 48 203.851562 47.980469 204.015625 47.964844 C 204.582031 47.921875 205.148438 47.898438 205.714844 47.898438 C 206.179688 47.902344 206.640625 47.933594 207.105469 47.964844 C 207.300781 47.980469 207.492188 47.976562 207.6875 47.996094 C 208.304688 48.054688 208.921875 48.144531 209.535156 48.257812 C 209.574219 48.265625 209.613281 48.269531 209.652344 48.277344 C 219.839844 50.21875 227.722656 59.199219 228.820312 70.105469 Z M 159.691406 11.035156 C 160.945312 9.179688 164.535156 8.789062 167.882812 8.652344 L 180.710938 8.121094 C 183.339844 8.011719 185.808594 7.996094 187.210938 8.996094 C 188.234375 9.730469 188.960938 11.316406 189.101562 13.144531 C 189.226562 14.792969 188.949219 16.601562 188.582031 18.410156 C 187.550781 18.507812 186.527344 18.617188 185.539062 18.722656 C 183.613281 18.929688 181.796875 19.125 180.101562 19.226562 L 161.769531 20.292969 C 160.726562 18.507812 159.78125 16.800781 159.339844 15.074219 C 158.933594 13.472656 159.066406 11.960938 159.691406 11.035156 Z M 145.273438 31.367188 C 146.894531 29.378906 150.652344 29.011719 154.054688 28.820312 L 180.566406 27.273438 C 182.464844 27.164062 184.464844 26.949219 186.402344 26.738281 C 189.28125 26.429688 192.214844 26.113281 194.960938 26.113281 C 196.792969 26.113281 198.542969 26.253906 200.128906 26.632812 C 203.324219 27.394531 204.601562 28.789062 205.578125 32.542969 C 205.675781 33.027344 205.871094 34.898438 206.046875 37.417969 L 144.199219 38.449219 C 143.949219 35.625 143.984375 32.9375 145.273438 31.367188 Z M 144.683594 42.472656 L 195.511719 41.625 C 194.507812 41.988281 193.519531 42.410156 192.539062 42.882812 C 192.417969 42.941406 192.296875 43 192.171875 43.0625 C 191.605469 43.339844 191.042969 43.632812 190.488281 43.953125 C 189.828125 44.328125 189.1875 44.738281 188.558594 45.160156 C 188.445312 45.238281 188.332031 45.3125 188.21875 45.390625 C 187.621094 45.808594 187.035156 46.246094 186.464844 46.710938 C 186.359375 46.796875 186.253906 46.882812 186.148438 46.972656 C 185.5625 47.460938 184.988281 47.960938 184.441406 48.496094 C 184.425781 48.507812 184.414062 48.523438 184.398438 48.539062 C 183.855469 49.066406 183.332031 49.621094 182.824219 50.191406 C 182.769531 50.253906 182.710938 50.304688 182.660156 50.367188 L 154.460938 50.65625 C 151.699219 50.691406 149.46875 50.632812 147.96875 49.699219 C 146.054688 48.511719 145.191406 45.675781 144.683594 42.472656 Z M 248.429688 284.753906 L 248.539062 404.394531 C 248.539062 404.785156 248.613281 405.152344 248.71875 405.507812 C 203.59375 413.304688 156.335938 413.386719 111.117188 405.738281 C 111.125 405.636719 111.144531 405.542969 111.144531 405.441406 L 109.960938 285.761719 Z M 101.894531 285.820312 L 103.070312 404.28125 C 102.390625 404.152344 101.703125 404.039062 101.023438 403.90625 C 100.769531 403.855469 100.519531 403.835938 100.269531 403.835938 C 96.695312 401.183594 92.789062 398.867188 88.613281 396.945312 L 91.085938 285.902344 Z M 70.824219 67.515625 C 60.730469 46 39.261719 32.585938 20.316406 20.75 C 17.890625 19.234375 15.140625 17.511719 13.664062 15.285156 C 12.558594 13.617188 12.359375 11.410156 13.214844 10.367188 C 14.113281 9.273438 16.320312 8.824219 19.613281 9.078125 C 47.554688 11.203125 68.890625 35.816406 77.636719 59.269531 C 87.480469 85.660156 86.808594 115.800781 86.21875 142.394531 L 80.621094 393.851562 C 79.613281 393.535156 78.601562 393.238281 77.578125 392.964844 C 77.121094 392.84375 76.65625 392.742188 76.199219 392.628906 L 78.3125 119.394531 C 78.441406 102.832031 78.585938 84.058594 70.824219 67.515625 Z M 52.722656 503.246094 C 29.851562 499.316406 10.773438 478.953125 8.34375 455.875 C 6.128906 434.84375 17.074219 414.144531 35.582031 404.367188 C 59.597656 391.679688 94.175781 401.011719 108.125 423.949219 C 116.914062 438.40625 117.789062 457.8125 110.359375 473.394531 C 100.371094 494.339844 75.589844 507.167969 52.722656 503.246094 Z M 265.175781 479.0625 L 265.914062 478.96875 C 271.832031 478.214844 277.953125 477.4375 282.832031 479.570312 C 285.296875 480.652344 287.449219 483.113281 288.1875 485.699219 C 288.507812 486.824219 288.6875 488.457031 287.726562 489.863281 C 285.917969 492.496094 281.421875 493.082031 276.832031 493.324219 L 216.40625 496.496094 C 199 497.410156 181.007812 498.355469 163.71875 495.390625 C 150.550781 493.128906 132.183594 487.449219 119.203125 473.25 C 120.816406 469.160156 121.945312 464.878906 122.628906 460.53125 C 167.710938 478.769531 216.886719 485.179688 265.175781 479.0625 Z M 228.96875 471.773438 C 228.296875 472.121094 227.773438 472.640625 227.402344 473.242188 C 191.800781 472.976562 156.433594 465.832031 123.390625 452.121094 C 123.476562 448.042969 123.171875 443.964844 122.476562 439.964844 C 138.019531 442.066406 153.777344 443.121094 169.570312 443.121094 C 197.148438 443.121094 224.800781 439.925781 251.445312 433.605469 C 251.730469 449.082031 242.753906 464.652344 228.96875 471.773438 Z M 265.472656 413.894531 C 266.710938 415.691406 265.574219 418.789062 263.78125 420.449219 C 261.332031 422.714844 257.613281 423.78125 253.695312 424.765625 C 210.507812 435.589844 164.445312 437.910156 120.363281 431.523438 C 119.015625 427.402344 117.25 423.4375 115.011719 419.761719 C 113.765625 417.707031 112.347656 415.742188 110.808594 413.855469 C 158.089844 421.726562 207.523438 421.359375 254.527344 412.691406 C 260.566406 411.582031 264.148438 411.972656 265.472656 413.894531 Z M 261.597656 272.332031 C 260.46875 276.050781 253.503906 276.65625 249.457031 276.683594 L 91.265625 277.835938 L 91.582031 263.746094 L 245.988281 264.121094 C 249.914062 264.128906 254.359375 264.140625 257.710938 265.835938 C 260.167969 267.074219 262.3125 269.984375 261.597656 272.332031 Z M 239.6875 106.257812 C 246.710938 114.601562 247.851562 126.949219 248.421875 138.878906 C 250.257812 177.472656 250.128906 216.601562 248.03125 255.171875 C 248.015625 255.480469 248.039062 255.777344 248.089844 256.070312 C 247.375 256.0625 246.679688 256.058594 246.007812 256.054688 L 110.902344 255.730469 L 112.671875 161.863281 C 112.917969 148.988281 113.191406 134.390625 120.25 123.042969 C 124.238281 116.628906 130.390625 111.402344 136.339844 106.34375 L 137.863281 105.050781 C 141.464844 101.976562 144.804688 98.699219 148.195312 95.332031 C 151.710938 91.839844 153.234375 87.339844 154.496094 83.027344 C 156.816406 75.085938 157.367188 66.757812 156.152344 58.707031 L 177.429688 58.484375 C 175.238281 63.328125 174.234375 68.648438 174.625 73.808594 C 175.546875 85.75 183.683594 96.632812 194.867188 100.894531 C 198.367188 102.226562 202.113281 102.875 205.863281 102.875 C 212.582031 102.875 219.3125 100.789062 224.664062 96.804688 C 225.058594 96.507812 225.429688 96.1875 225.8125 95.871094 C 231.347656 99.039062 235.726562 101.550781 239.6875 106.257812 Z M 214.332031 41.164062 C 214.292969 40.242188 214.242188 39.308594 214.1875 38.390625 L 281.523438 36.011719 C 283.617188 40.65625 287.070312 44.648438 291.355469 47.554688 L 227.175781 48.921875 C 223.589844 45.355469 219.210938 42.660156 214.332031 41.164062 Z M 304.210938 62.792969 C 307.476562 62.792969 310.929688 62.917969 314.496094 63.089844 C 318.191406 63.269531 321.683594 63.4375 324.6875 63.363281 C 329.796875 63.242188 335.011719 63.359375 337.78125 66.253906 C 339.828125 68.390625 340.414062 71.925781 340.796875 75.726562 L 278.296875 76.332031 C 278.410156 75.734375 278.515625 75.132812 278.644531 74.546875 C 280.808594 64.875 290.972656 62.792969 304.210938 62.792969 Z M 341.90625 157.84375 C 341.671875 161.210938 341.25 164.941406 339.207031 166.585938 C 337.648438 167.835938 335.015625 168.019531 331.988281 168.121094 L 291.511719 169.460938 C 286.5625 169.628906 282.226562 169.589844 279.257812 167.476562 C 274.640625 164.191406 274.363281 156.519531 274.699219 149.445312 C 274.703125 149.382812 274.703125 149.320312 274.703125 149.253906 C 274.703125 140.664062 275.265625 131.820312 275.808594 123.265625 C 276.085938 118.960938 276.367188 114.507812 276.574219 110.132812 C 276.75 106.5 276.777344 102.707031 276.808594 99.039062 C 276.824219 97.25 276.839844 95.445312 276.871094 93.644531 L 342.132812 92.707031 C 343.480469 114.386719 343.421875 136.226562 341.90625 157.84375 Z M 341.90625 157.84375 " style=" stroke:none;fill-rule:nonzero;fill:rgb(0%,0%,0%);fill-opacity:1;" />
<path d="M 199.707031 54.382812 C 192.703125 56.546875 188.09375 62.421875 187.675781 69.714844 C 187.242188 77.234375 192.042969 84.589844 199.082031 87.207031 C 200.929688 87.890625 202.886719 88.21875 204.855469 88.21875 C 210.324219 88.21875 215.84375 85.691406 219.109375 81.3125 C 223.582031 75.324219 223.523438 66.351562 218.96875 60.441406 C 214.429688 54.550781 206.867188 52.167969 199.707031 54.382812 Z M 215.882812 78.902344 C 212.46875 83.472656 205.851562 85.417969 200.488281 83.425781 C 195.148438 81.445312 191.375 75.648438 191.699219 69.945312 C 192.082031 63.289062 196.703125 59.53125 200.894531 58.234375 C 206.433594 56.523438 212.273438 58.355469 215.777344 62.902344 C 219.265625 67.429688 219.308594 74.308594 215.882812 78.902344 Z M 215.882812 78.902344 " style=" stroke:none;fill-rule:nonzero;fill:rgb(0%,0%,0%);fill-opacity:1;" />
<path d="M 204.980469 63.898438 C 204.980469 63.898438 204.980469 63.898438 204.976562 63.898438 C 203.867188 63.898438 202.964844 64.796875 202.960938 65.910156 L 202.949219 77.25 C 202.949219 78.363281 203.851562 79.265625 204.964844 79.265625 C 204.964844 79.265625 204.964844 79.265625 204.96875 79.265625 C 206.078125 79.265625 206.980469 78.367188 206.984375 77.253906 L 206.996094 65.914062 C 206.996094 64.800781 206.09375 63.898438 204.980469 63.898438 Z M 204.980469 63.898438 " style=" stroke:none;fill-rule:nonzero;fill:rgb(0%,0%,0%);fill-opacity:1;" />
<path d="M 303.058594 37.746094 C 303.429688 38.035156 303.867188 38.175781 304.300781 38.175781 C 304.898438 38.175781 305.492188 37.910156 305.890625 37.402344 L 316.09375 24.363281 C 316.777344 23.488281 316.625 22.222656 315.746094 21.535156 C 314.871094 20.847656 313.605469 21.003906 312.917969 21.878906 L 302.714844 34.917969 C 302.027344 35.792969 302.183594 37.0625 303.058594 37.746094 Z M 303.058594 37.746094 " style=" stroke:none;fill-rule:nonzero;fill:rgb(0%,0%,0%);fill-opacity:1;" />
<path d="M 52.792969 434.90625 C 44.890625 438.328125 40.53125 446.09375 41.6875 454.679688 C 42.714844 462.296875 48.921875 468.964844 56.445312 470.539062 C 57.625 470.789062 58.824219 470.90625 60.023438 470.90625 C 66.480469 470.90625 72.953125 467.460938 76.320312 461.925781 C 80.316406 455.359375 79.691406 446.269531 74.835938 440.3125 C 69.363281 433.597656 60.710938 431.472656 52.792969 434.90625 Z M 72.878906 459.828125 C 69.742188 464.984375 63.175781 467.828125 57.269531 466.59375 C 51.363281 465.359375 46.492188 460.121094 45.683594 454.140625 C 44.578125 445.9375 49.6875 440.644531 54.398438 438.601562 C 56.132812 437.851562 58.230469 437.359375 60.445312 437.359375 C 64.25 437.359375 68.40625 438.804688 71.710938 442.859375 C 75.523438 447.535156 76.015625 454.671875 72.878906 459.828125 Z M 72.878906 459.828125 " style=" stroke:none;fill-rule:nonzero;fill:rgb(0%,0%,0%);fill-opacity:1;" />
</g>
</svg>